Coordinates
version=1
nRows=54
nColumns=12
inDegrees=yes

Units are S.I. units (second, meters, Newtons, ...)
Angles are in degrees

endheader
time	SC_y	SC_z	SC_x	AC_y	AC_z	AC_x	GH_y	GH_z	GH_yy	EL_x	PS_y
       0.0              -54.64          38.11          26.05          67.34          9.338         -13.72         -79.59         -17.23          21.63          129.6          77.56
   0.03677              -54.64          38.11          26.06          67.33          9.334         -13.72         -79.56         -17.22          21.62          129.6          77.57
   0.07354              -54.64           38.1          26.07          67.33           9.33         -13.71         -79.53         -17.21           21.6          129.6          77.57
    0.1103              -54.64           38.1          26.08          67.32          9.326          -13.7         -79.49          -17.2          21.59          129.5          77.58
    0.1471              -54.64          38.09          26.09          67.32          9.321          -13.7         -79.46         -17.19          21.57          129.5          77.59
    0.1838              -54.64          38.08           26.1          67.31          9.316         -13.69         -79.42         -17.18          21.55          129.5           77.6
    0.2206              -54.64          38.08          26.11          67.31          9.311         -13.69         -79.38         -17.17          21.53          129.5          77.61
    0.2574              -54.64          38.07          26.12           67.3          9.305         -13.68         -79.33         -17.16          21.51          129.5          77.62
    0.2941              -54.64          38.06          26.13           67.3          9.299         -13.67         -79.29         -17.15          21.49          129.5          77.63
    0.3309              -54.64          38.05          26.15          67.29          9.293         -13.67         -79.24         -17.13          21.46          129.5          77.64
    0.3677              -54.64          38.04          26.16          67.28          9.286         -13.66         -79.18         -17.12          21.44          129.5          77.66
    0.4045              -54.64          38.03          26.18          67.27          9.278         -13.65         -79.13          -17.1          21.41          129.5          77.67
    0.4412              -54.64          38.02           26.2          67.27           9.27         -13.64         -79.06         -17.08          21.38          129.5          77.68
     0.478              -54.64          38.01          26.22          67.26          9.261         -13.63          -79.0         -17.06          21.35          129.5           77.7
    0.5148              -54.64           38.0          26.24          67.25          9.252         -13.62         -78.92         -17.04          21.32          129.4          77.72
    0.5515              -54.64          37.99          26.26          67.24          9.242          -13.6         -78.84         -17.02          21.28          129.4          77.74
    0.5883              -54.64          37.97          26.28          67.22           9.23         -13.59         -78.76          -17.0          21.24          129.4          77.76
    0.6251              -54.64          37.96          26.31          67.21          9.218         -13.58         -78.66         -16.97          21.19          129.4          77.78
    0.6618              -54.64          37.94          26.34           67.2          9.205         -13.56         -78.56         -16.94          21.14          129.4           77.8
    0.6986              -54.64          37.92          26.37          67.18          9.191         -13.54         -78.45         -16.91          21.09          129.4          77.83
    0.7354              -54.64           37.9          26.41          67.17          9.175         -13.52         -78.33         -16.88          21.03          129.3          77.86
    0.7721              -54.64          37.88          26.45          67.15          9.157          -13.5         -78.19         -16.84          20.97          129.3          77.89
    0.8089              -54.64          37.85          26.49          67.13          9.138         -13.48         -78.04          -16.8           20.9          129.3          77.93
    0.8457              -54.64          37.82          26.54          67.11          9.116         -13.45         -77.88         -16.75          20.82          129.3          77.97
    0.8824              -54.64          37.79          26.59          67.08          9.092         -13.42         -77.69          -16.7          20.73          129.2          78.01
    0.9192              -54.63          37.76          26.65          67.05          9.066         -13.39         -77.49         -16.64          20.63          129.2          78.06
     0.956              -54.63          37.72          26.71          67.02          9.036         -13.35         -77.26         -16.58          20.52          129.2          78.11
    0.9928              -54.63          37.68          26.78          66.99          9.002         -13.31          -77.0         -16.51           20.4          129.1          78.18
      1.03              -54.63          37.63          26.87          66.95          8.964         -13.27          -76.7         -16.42          20.26          129.1          78.24
     1.066              -54.63          37.57          26.96           66.9          8.921         -13.22         -76.37         -16.33           20.1          129.0          78.32
     1.103              -54.63          37.51          27.07          66.85          8.872         -13.16         -75.99         -16.23          19.92          128.9          78.41
      1.14              -54.62          37.43          27.19          66.79          8.816         -13.09         -75.56          -16.1          19.71          128.9          78.52
     1.177              -54.62          37.35          27.34          66.73          8.751         -13.01         -75.05         -15.96          19.47          128.8          78.64
     1.213              -54.62          37.25           27.5          66.65          8.675         -12.92         -74.47          -15.8           19.2          128.7          78.78
      1.25              -54.62          37.13           27.7          66.56          8.587         -12.81         -73.79         -15.61          18.87          128.6          78.94
     1.287              -54.61           37.0          27.93          66.45          8.482         -12.69         -72.98         -15.39          18.49          128.4          79.13
     1.324              -54.61          36.84           28.2          66.32          8.358         -12.54         -72.02         -15.12          18.03          128.2          79.36
      1.36               -54.6          36.64          28.52          66.16           8.21         -12.36         -70.87          -14.8          17.48          128.0          79.63
     1.397              -54.59          36.41          28.92          65.98           8.03         -12.14         -69.49         -14.41          16.82          127.8          79.96
     1.434              -54.59          36.12           29.4          65.75           7.81         -11.87         -67.79         -13.94          16.02          127.5          80.36
     1.471              -54.58          35.77          29.99          65.47          7.539         -11.55          -65.7         -13.35          15.02          127.1          80.86
     1.508              -54.56          35.33          30.74          65.12          7.201         -11.14         -63.08         -12.63          13.78          126.7          81.48
     1.544              -54.55          34.77          31.67          64.67          6.775         -10.62         -59.79         -11.71          12.21          126.1          82.26
     1.581              -54.53          34.07          32.86          64.11          6.233         -9.969         -55.61         -10.54          10.22          125.4          83.25
     1.618               -54.5          33.17          34.38          63.39           5.54         -9.132         -50.26         -9.051          7.676          124.5          84.52
     1.655              -54.46          32.01          36.33          62.47          4.651         -8.058         -43.39         -7.136          4.408          123.3          86.15
     1.691              -54.42          30.53          38.82          61.29          3.515         -6.686         -34.62         -4.689         0.2336          121.7          88.23
     1.728              -54.37          28.67          41.95          59.81          2.087          -4.96         -23.59         -1.613         -5.015          119.8          90.85
     1.765               -54.3           26.4          45.77           58.0         0.3458         -2.857         -10.15          2.135         -11.41          117.5          94.04
     1.802              -54.22          23.77          50.19          55.91         -1.672        -0.4198          5.432           6.48         -18.83          114.8          97.74
     1.838              -54.14          20.93          54.98          53.64         -3.857          2.219           22.3          11.19         -26.85          111.8          101.7
     1.875              -54.05          18.08          59.77          51.37         -6.041          4.859          39.17          15.89         -34.88          108.9          105.7
     1.912              -53.98          15.46           64.2          49.28         -8.059          7.296          54.76          20.24          -42.3          106.2          109.4
     1.949              -53.91          13.19          68.02          47.47           -9.8          9.399           68.2          23.98         -48.69          103.8          112.6
